<?xml version="1.0" encoding="utf-8"?>
<!-- Generator: Adobe Illustrator 26.0.2, SVG Export Plug-In . SVG Version: 6.00 Build 0)  -->
<svg version="1.1" id="Warstwa_1" xmlns="http://www.w3.org/2000/svg" xmlns:xlink="http://www.w3.org/1999/xlink" x="0px" y="0px"
	 viewBox="0 0 53.7 60" style="enable-background:new 0 0 53.7 60;" xml:space="preserve">
<g>
	<path d="M17,56.2c-1.7,0-3.4,0-5.1,0l-2.6,0c-1.4,0-2.5-0.4-3.4-1.1c-1.4-1.1-2.1-2.6-2.1-4.6c0-9.7,0-19.3,0-29V9.4
		c0-0.2,0-0.4,0-0.6c0.2-2.9,2.4-5,5.3-5c8.4,0,16.9,0,25.4,0l3.8,0c1.3,0,2.4,0.4,3.3,1.1c1.4,1.1,2.1,2.6,2.1,4.6
		c0,3.2,0,6.4,0,9.6l0,4.3c0,0.6,0.1,1.2,0.4,1.6c0.5,0.6,1.3,0.9,2.1,0.6c1-0.4,1.3-1.3,1.3-2l0-3.1c0-3.7,0-7.4,0-11.1
		c0-4.5-3-8.2-7.3-9.1c-0.2,0-0.4-0.1-0.5-0.1l-0.2,0H8.1L8,0c-0.1,0-0.2,0-0.3,0.1C7.4,0.2,7,0.3,6.7,0.4C5.9,0.7,5.2,0.9,4.6,1.2
		C1.5,3,0,5.7,0,9.3l0,17.8c0,2.4,0,4.7,0,7.1c0,5.4,0,11,0,16.5c0,2.5,0.9,4.9,2.7,6.7C4.4,59,6.6,60,9,60l1.5,0c2.1,0,4.2,0,6.3,0
		c0.4,0,0.9-0.2,1.3-0.4c0.6-0.4,0.8-1.2,0.6-2C18.5,56.7,17.8,56.3,17,56.2z"/>
	<path d="M53.6,38.7c0-0.2,0-0.5-0.1-0.8c-0.5-2.7-2.1-4.4-4.5-5.2c-0.7-0.2-1.5-0.3-2.1-0.3c-1.7,0-3.2,0.7-4.6,2.1
		c-3.9,3.9-8.1,8-12.8,12.8c-0.3,0.3-0.6,0.7-0.7,1.1c-1,3.1-1.9,6.1-2.7,9c-0.1,0.4-0.1,0.9,0,1.3c0.3,1,1.3,1.5,2.5,1.1l1.4-0.4
		c2.5-0.7,5.1-1.4,7.6-2.1c0.5-0.1,1-0.4,1.3-0.7c4.3-4.3,8.6-8.5,12.9-12.8c1.3-1.3,2-2.9,2-4.9L53.6,38.7z M45.2,45
		c-0.1,0.2-0.2,0.3-0.3,0.4l-1.5,1.5c-2.2,2.2-4.3,4.3-6.5,6.5c-0.3,0.3-0.7,0.5-1.1,0.6c-1,0.3-2.1,0.6-3.1,0.9l-2.1,0.6l0.3-0.9
		c0.1-0.3,0.2-0.5,0.2-0.8c0.2-0.5,0.3-1,0.4-1.4c0.3-1.7,1.2-3.1,2.7-4.5c1.6-1.5,3.2-3.2,4.8-4.7c0.6-0.6,1.2-1.2,1.8-1.8
		c0.1-0.1,0.1-0.2,0.2-0.3c0-0.1,0.1-0.1,0.1-0.2l0.3-0.5l4.2,4.2L45.2,45z M48.6,41.5l-0.4,0.3l-3.9-3.9l0.2-0.3
		c0.7-1,1.9-1.6,3-1.3c1.2,0.2,2,1,2.3,2.1C50.1,39.6,49.7,40.7,48.6,41.5z"/>
	<path d="M11.7,18l24,0c0.2,0,0.3,0,0.4,0c0.9-0.1,1.6-0.8,1.7-1.7c0.1-0.6-0.1-1.1-0.4-1.5c-0.4-0.4-0.9-0.6-1.6-0.6
		c-2.9,0-5.8,0-8.7,0l-6.5,0l-2.6,0c-0.9,0-1.7,0-2.6,0c-1.3,0-2.5,0-3.8,0c-0.6,0-1.2,0.2-1.5,0.6c-0.3,0.4-0.5,0.9-0.5,1.4
		C9.6,17.4,10.4,18,11.7,18z"/>
	<path d="M10,26.9c0.4,0.4,0.9,0.6,1.6,0.6c2.8,0,5.6,0,8.4,0l3.7,0l6.9,0c1.8,0,3.6,0,5.3,0c0.6,0,1.1-0.2,1.5-0.6
		c0.3-0.3,0.5-0.8,0.5-1.3c0-1.1-0.9-1.8-2.1-1.8c-7.3,0-14.6,0-21.9,0l-2.2,0c-0.2,0-0.3,0-0.4,0c-0.9,0.1-1.6,0.7-1.7,1.6
		C9.5,26,9.6,26.5,10,26.9z"/>
	<path d="M28.1,35.6c0.1-0.6-0.1-1.1-0.4-1.5c-0.4-0.4-0.9-0.7-1.5-0.7c-1.7,0-3.5,0-5.2,0l-2.1,0l-2.1,0c-0.7,0-1.4,0-2.1,0
		c-1,0-2,0-3,0c-1,0-1.8,0.6-2,1.5C9.5,35.5,9.6,36,10,36.5c0.4,0.4,0.9,0.6,1.5,0.7c1.7,0,3.5,0,5.2,0l2.2,0l2.1,0
		c1.7,0,3.5,0,5.2,0C27.2,37.1,28,36.5,28.1,35.6z"/>
</g>
</svg>
